<svg width="16" height="16" viewBox="0 0 16 16" fill="none" xmlns="http://www.w3.org/2000/svg">
<g clip-path="url(#clip0_207_251)">
<path fill-rule="evenodd" clip-rule="evenodd" d="M11.5 2C11.6326 2 11.7598 2.05268 11.8536 2.14645C11.9473 2.24021 12 2.36739 12 2.5V13.5C12 13.6326 11.9473 13.7598 11.8536 13.8536C11.7598 13.9473 11.6326 14 11.5 14C11.3674 14 11.2402 13.9473 11.1464 13.8536C11.0527 13.7598 11 13.6326 11 13.5V2.5C11 2.36739 11.0527 2.24021 11.1464 2.14645C11.2402 2.05268 11.3674 2 11.5 2Z" fill="#005FB8"/>
<path fill-rule="evenodd" clip-rule="evenodd" d="M7.14604 9.146C7.19248 9.09944 7.24766 9.0625 7.30841 9.03729C7.36915 9.01208 7.43427 8.99911 7.50004 8.99911C7.56581 8.99911 7.63093 9.01208 7.69167 9.03729C7.75242 9.0625 7.80759 9.09944 7.85404 9.146L11.5 12.793L15.146 9.146C15.2399 9.05211 15.3673 8.99937 15.5 8.99937C15.6328 8.99937 15.7602 9.05211 15.854 9.146C15.9479 9.23989 16.0007 9.36723 16.0007 9.5C16.0007 9.63278 15.9479 9.76011 15.854 9.854L11.854 13.854C11.8076 13.9006 11.7524 13.9375 11.6917 13.9627C11.6309 13.9879 11.5658 14.0009 11.5 14.0009C11.4343 14.0009 11.3692 13.9879 11.3084 13.9627C11.2477 13.9375 11.1925 13.9006 11.146 13.854L7.14604 9.854C7.09948 9.80756 7.06253 9.75238 7.03733 9.69163C7.01212 9.63089 6.99915 9.56577 6.99915 9.5C6.99915 9.43423 7.01212 9.36911 7.03733 9.30837C7.06253 9.24762 7.09948 9.19245 7.14604 9.146Z" fill="#005FB8"/>
<path fill-rule="evenodd" clip-rule="evenodd" d="M4.5 2C4.63261 2 4.75979 2.05268 4.85355 2.14645C4.94732 2.24021 5 2.36739 5 2.5V13.5C5 13.6326 4.94732 13.7598 4.85355 13.8536C4.75979 13.9473 4.63261 14 4.5 14C4.36739 14 4.24021 13.9473 4.14645 13.8536C4.05268 13.7598 4 13.6326 4 13.5V2.5C4 2.36739 4.05268 2.24021 4.14645 2.14645C4.24021 2.05268 4.36739 2 4.5 2Z" fill="white"/>
<path fill-rule="evenodd" clip-rule="evenodd" d="M4.14602 2.146C4.19247 2.09944 4.24764 2.0625 4.30839 2.03729C4.36913 2.01208 4.43425 1.99911 4.50002 1.99911C4.56579 1.99911 4.63091 2.01208 4.69166 2.03729C4.7524 2.0625 4.80758 2.09944 4.85402 2.146L8.85402 6.146C8.90051 6.19249 8.93739 6.24768 8.96254 6.30842C8.9877 6.36916 9.00065 6.43426 9.00065 6.5C9.00065 6.56574 8.9877 6.63085 8.96254 6.69158C8.93739 6.75232 8.90051 6.80751 8.85402 6.854C8.80753 6.90049 8.75234 6.93737 8.6916 6.96252C8.63087 6.98768 8.56576 7.00063 8.50002 7.00063C8.43428 7.00063 8.36918 6.98768 8.30844 6.96252C8.2477 6.93737 8.19251 6.90049 8.14602 6.854L4.50002 3.207L0.854021 6.854C0.807533 6.90049 0.752344 6.93737 0.691605 6.96252C0.630865 6.98768 0.565765 7.00063 0.500021 7.00063C0.434277 7.00063 0.369177 6.98768 0.308438 6.96252C0.247698 6.93737 0.192509 6.90049 0.146021 6.854C0.0995333 6.80751 0.0626571 6.75232 0.037498 6.69158C0.0123389 6.63085 -0.000610353 6.56574 -0.000610352 6.5C-0.000610351 6.43426 0.0123389 6.36916 0.037498 6.30842C0.0626571 6.24768 0.0995333 6.19249 0.146021 6.146L4.14602 2.146Z" fill="white"/>
</g>
<defs>
<clipPath id="clip0_207_251">
<rect width="16" height="16" fill="white"/>
</clipPath>
</defs>
</svg>
