<svg width="16" height="16" viewBox="0 0 16 16" fill="none" xmlns="http://www.w3.org/2000/svg">
<g clip-path="url(#clip0_207_224)">
<path fill-rule="evenodd" clip-rule="evenodd" d="M2.5 2C2.36739 2 2.24021 2.05268 2.14645 2.14645C2.05268 2.24021 2 2.36739 2 2.5V14.5C2 14.6326 2.05268 14.7598 2.14645 14.8536C2.24021 14.9473 2.36739 15 2.5 15H5.5C5.63261 15 5.75979 15.0527 5.85355 15.1464C5.94732 15.2402 6 15.3674 6 15.5C6 15.6326 5.94732 15.7598 5.85355 15.8536C5.75979 15.9473 5.63261 16 5.5 16H2.5C2.10218 16 1.72064 15.842 1.43934 15.5607C1.15804 15.2794 1 14.8978 1 14.5V2.5C1 2.10218 1.15804 1.72064 1.43934 1.43934C1.72064 1.15804 2.10218 1 2.5 1H4.5C4.63261 1 4.75979 1.05268 4.85355 1.14645C4.94732 1.24021 5 1.36739 5 1.5C5 1.63261 4.94732 1.75979 4.85355 1.85355C4.75979 1.94732 4.63261 2 4.5 2H2.5ZM9 1.5C9 1.36739 9.05268 1.24021 9.14645 1.14645C9.24021 1.05268 9.36739 1 9.5 1H11.5C11.8978 1 12.2794 1.15804 12.5607 1.43934C12.842 1.72064 13 2.10218 13 2.5V3.5C13 3.63261 12.9473 3.75979 12.8536 3.85355C12.7598 3.94732 12.6326 4 12.5 4C12.3674 4 12.2402 3.94732 12.1464 3.85355C12.0527 3.75979 12 3.63261 12 3.5V2.5C12 2.36739 11.9473 2.24021 11.8536 2.14645C11.7598 2.05268 11.6326 2 11.5 2H9.5C9.36739 2 9.24021 1.94732 9.14645 1.85355C9.05268 1.75979 9 1.63261 9 1.5Z" fill="#F2F2F7"/>
<path fill-rule="evenodd" clip-rule="evenodd" d="M4 1.5C4 1.10218 4.15804 0.720644 4.43934 0.43934C4.72064 0.158035 5.10218 0 5.5 0L8.5 0C8.89782 0 9.27936 0.158035 9.56066 0.43934C9.84196 0.720644 10 1.10218 10 1.5C10 1.89782 9.84196 2.27936 9.56066 2.56066C9.27936 2.84196 8.89782 3 8.5 3H5.5C5.10218 3 4.72064 2.84196 4.43934 2.56066C4.15804 2.27936 4 1.89782 4 1.5ZM5.5 1C5.36739 1 5.24021 1.05268 5.14645 1.14645C5.05268 1.24021 5 1.36739 5 1.5C5 1.63261 5.05268 1.75979 5.14645 1.85355C5.24021 1.94732 5.36739 2 5.5 2H8.5C8.63261 2 8.75979 1.94732 8.85355 1.85355C8.94732 1.75979 9 1.63261 9 1.5C9 1.36739 8.94732 1.24021 8.85355 1.14645C8.75979 1.05268 8.63261 1 8.5 1H5.5Z" fill="#F2F2F7"/>
<path fill-rule="evenodd" clip-rule="evenodd" d="M7 6.5C7 6.10218 7.15804 5.72064 7.43934 5.43934C7.72064 5.15804 8.10218 5 8.5 5H13.5C13.8978 5 14.2794 5.15804 14.5607 5.43934C14.842 5.72064 15 6.10218 15 6.5V14.5C15 14.8978 14.842 15.2794 14.5607 15.5607C14.2794 15.842 13.8978 16 13.5 16H8.5C8.10218 16 7.72064 15.842 7.43934 15.5607C7.15804 15.2794 7 14.8978 7 14.5V6.5ZM8.5 6C8.36739 6 8.24021 6.05268 8.14645 6.14645C8.05268 6.24021 8 6.36739 8 6.5V14.5C8 14.6326 8.05268 14.7598 8.14645 14.8536C8.24021 14.9473 8.36739 15 8.5 15H13.5C13.6326 15 13.7598 14.9473 13.8536 14.8536C13.9473 14.7598 14 14.6326 14 14.5V6.5C14 6.36739 13.9473 6.24021 13.8536 6.14645C13.7598 6.05268 13.6326 6 13.5 6H8.5Z" fill="#005FB8"/>
</g>
<defs>
<clipPath id="clip0_207_224">
<rect width="16" height="16" fill="white"/>
</clipPath>
</defs>
</svg>
