<svg width="16" height="16" viewBox="0 0 16 16" fill="none" xmlns="http://www.w3.org/2000/svg">
<g clip-path="url(#clip0_207_242)">
<path d="M15 2C15.1326 2 15.2598 2.05268 15.3536 2.14645C15.4473 2.24021 15.5 2.36739 15.5 2.5C15.5 2.63261 15.4473 2.75979 15.3536 2.85355C15.2598 2.94732 15.1326 3 15 3H14.446L13.15 14.23C13.0936 14.7174 12.86 15.167 12.4936 15.4934C12.1272 15.8198 11.6537 16.0001 11.163 16H4.837C4.34635 16.0001 3.87279 15.8198 3.50642 15.4934C3.14005 15.167 2.90642 14.7174 2.85 14.23L1.553 3H1C0.882974 3.00004 0.769643 2.95903 0.679741 2.88411C0.58984 2.80919 0.529065 2.70511 0.508 2.59L0.5 2.5C0.5 2.36739 0.552678 2.24021 0.646447 2.14645C0.740215 2.05268 0.867392 2 1 2H15ZM13.438 3H2.561L3.844 14.115C3.8722 14.3586 3.98894 14.5834 4.17202 14.7465C4.3551 14.9097 4.59176 14.9999 4.837 15H11.163C11.4082 14.9999 11.6449 14.9097 11.828 14.7465C12.0111 14.5834 12.1278 14.3586 12.156 14.115L13.438 3Z" fill="white"/>
<path fill-rule="evenodd" clip-rule="evenodd" d="M8 1C7.60218 1 7.22064 1.15804 6.93934 1.43934C6.65804 1.72064 6.5 2.10218 6.5 2.5H5.5C5.5 1.83696 5.76339 1.20107 6.23223 0.732233C6.70107 0.263392 7.33696 0 8 0C8.66304 0 9.29893 0.263392 9.76777 0.732233C10.2366 1.20107 10.5 1.83696 10.5 2.5H9.5C9.5 2.10218 9.34196 1.72064 9.06066 1.43934C8.77936 1.15804 8.39782 1 8 1ZM6.5 6C6.63261 6 6.75979 6.05268 6.85355 6.14645C6.94732 6.24021 7 6.36739 7 6.5V11.5C7 11.6326 6.94732 11.7598 6.85355 11.8536C6.75979 11.9473 6.63261 12 6.5 12C6.36739 12 6.24021 11.9473 6.14645 11.8536C6.05268 11.7598 6 11.6326 6 11.5V6.5C6 6.36739 6.05268 6.24021 6.14645 6.14645C6.24021 6.05268 6.36739 6 6.5 6ZM9.5 6C9.63261 6 9.75979 6.05268 9.85355 6.14645C9.94732 6.24021 10 6.36739 10 6.5V11.5C10 11.6326 9.94732 11.7598 9.85355 11.8536C9.75979 11.9473 9.63261 12 9.5 12C9.36739 12 9.24021 11.9473 9.14645 11.8536C9.05268 11.7598 9 11.6326 9 11.5V6.5C9 6.36739 9.05268 6.24021 9.14645 6.14645C9.24021 6.05268 9.36739 6 9.5 6Z" fill="white"/>
</g>
<defs>
<clipPath id="clip0_207_242">
<rect width="16" height="16" fill="white"/>
</clipPath>
</defs>
</svg>
