<svg width="14" height="12" viewBox="0 0 14 12" fill="none" xmlns="http://www.w3.org/2000/svg">
<path d="M0.25 1.375C0.25 0.822715 0.697715 0.375 1.25 0.375H5.00972C5.20715 0.375 5.40016 0.433438 5.56442 0.54295L6.74808 1.33205C6.91234 1.44156 7.10535 1.5 7.30278 1.5H12.75C13.3023 1.5 13.75 1.94772 13.75 2.5V10.625C13.75 11.1773 13.3023 11.625 12.75 11.625H1.25C0.697715 11.625 0.25 11.1773 0.25 10.625V1.375Z" fill="#F9B919"/>
<path d="M5.3125 3.75L6.70711 2.35539C6.89464 2.16786 7.149 2.0625 7.41421 2.0625H12.75C13.3023 2.0625 13.75 2.51022 13.75 3.0625V10.0625C13.75 10.6148 13.3023 11.0625 12.75 11.0625H1.25C0.697715 11.0625 0.25 10.6148 0.25 10.0625V4.75C0.25 4.19772 0.697715 3.75 1.25 3.75H5.3125Z" fill="#FFEDB9"/>
<path d="M5.59375 4.3125L6.98836 2.91789C7.17589 2.73036 7.43025 2.625 7.69546 2.625H12.75C13.3023 2.625 13.75 3.07272 13.75 3.625V10.0625C13.75 10.6148 13.3023 11.0625 12.75 11.0625H1.25C0.697715 11.0625 0.25 10.6148 0.25 10.0625V5.3125C0.25 4.76022 0.697715 4.3125 1.25 4.3125H5.59375Z" fill="url(#paint0_linear_303_3800)"/>
<defs>
<linearGradient id="paint0_linear_303_3800" x1="7" y1="2.0625" x2="13.75" y2="11.0625" gradientUnits="userSpaceOnUse">
<stop stop-color="#FFE79F"/>
<stop offset="1" stop-color="#FFC937"/>
</linearGradient>
</defs>
</svg>
