<?xml version="1.0" encoding="utf-8"?>
<!DOCTYPE svg PUBLIC "-//W3C//DTD SVG 1.0//EN" "http://www.w3.org/TR/2001/REC-SVG-20010904/DTD/svg10.dtd">
<svg version="1.0" xmlns="http://www.w3.org/2000/svg" width="96px" height="96px" viewBox="0 0 96 96" preserveAspectRatio="xMidYMid meet">
 <g fill="#29afe9">
  <path d="M12 37.5 c0 -20.2 0.1 -21.6 2 -23.5 1.9 -1.9 3.3 -2 34 -2 30.7 0 32.1 0.1 34 2 1.8 1.8 2 3.3 2 18.8 l0 16.9 -3.9 3.1 c-5.5 4.4 -9.6 4.3 -15.1 -0.3 -4.6 -3.9 -6.1 -4.2 -8 -2 -0.7 0.8 -2.9 1.5 -4.9 1.5 -3.1 0 -4.5 -0.8 -9.1 -5.5 -3 -3 -6.1 -5.5 -6.8 -5.5 -0.8 0 -5.7 4.1 -10.9 9 -13.7 13.2 -13.3 13.6 -13.3 -12.5z m51 -7.1 c1.1 -1.2 1 -1.8 -0.3 -3.2 -1.6 -1.5 -1.8 -1.5 -3.4 0 -1.3 1.4 -1.4 2 -0.3 3.2 0.7 0.9 1.6 1.6 2 1.6 0.4 0 1.3 -0.7 2 -1.6z"/>
 </g>
 <g fill="#163e7a">
  <path d="M13.6 82.4 c-1.3 -1.2 -1.6 -4 -1.6 -13.6 l0 -12 9.6 -9.2 c5.3 -5 10.7 -9.7 12 -10.4 3.2 -1.7 5.3 -0.6 12.6 6.6 5 4.8 5.9 5.4 7.3 4.2 1.4 -1.2 3.4 0.4 16.1 13.1 11.4 11.4 14.4 14.9 14.4 17.1 0 5.8 -0.1 5.8 -36 5.8 -28.5 0 -33.1 -0.2 -34.4 -1.6z"/>
 </g>
 <g fill="#436dcd">
  <path d="M67.7 65.2 c-17.2 -17.2 -16.9 -16.5 -9.9 -20.2 2.5 -1.2 4.5 -0.2 12.4 6.1 l2.6 2.2 3.8 -3.2 c7.2 -5.8 7.4 -5.4 7.4 13.9 0 9.4 -0.1 17 -0.3 17 -0.1 0 -7.3 -7.1 -16 -15.8z"/>
 </g>
 <g fill="#ffffff">
  <path d="M56.2 33.7 c-3 -3.2 -2.8 -7.1 0.4 -9.6 1.5 -1.2 3.4 -2.1 4.4 -2.1 3.1 0 7 3.9 7 7 0 3.3 -4 7 -7.5 7 -1.2 0 -3.1 -1 -4.3 -2.3z"/>
 </g>
</svg>