<?xml version="1.0" encoding="utf-8"?>
<!DOCTYPE svg PUBLIC "-//W3C//DTD SVG 1.0//EN" "http://www.w3.org/TR/2001/REC-SVG-20010904/DTD/svg10.dtd">
<svg version="1.0" xmlns="http://www.w3.org/2000/svg" width="256px" height="256px" viewBox="0 0 256 256" preserveAspectRatio="xMidYMid meet">
 <g fill="#e60012">
  <path d="M45 203.5 c0 -1 -1 -1.5 -3 -1.5 l-3 0 0 -41.5 0 -41.5 3 0 c2 0 3 -0.5 3 -1.5 0 -1.3 9.9 -1.5 83.5 -1.5 73.6 0 83.5 0.2 83.5 1.5 0 1 1 1.5 3 1.5 l3 0 0 41.5 0 41.5 -3 0 c-2 0 -3 0.5 -3 1.5 0 1.3 -9.9 1.5 -83.5 1.5 -73.6 0 -83.5 -0.2 -83.5 -1.5z m27 -43.5 c0 -12 -0.4 -19 -1 -19 -0.6 0 -1 7 -1 19 0 12 0.4 19 1 19 0.6 0 1 -7 1 -19z m44 0 c0 -12 -0.4 -19 -1 -19 -0.6 0 -1 7 -1 19 0 12 0.4 19 1 19 0.6 0 1 -7 1 -19z m51 0 c0 -12 -0.4 -19 -1 -19 -0.6 0 -1 7 -1 19 0 12 0.4 19 1 19 0.6 0 1 -7 1 -19z m-22.3 -3.7 c-0.2 -1.6 -0.4 -0.3 -0.4 2.7 0 3 0.2 4.3 0.4 2.8 0.2 -1.6 0.2 -4 0 -5.5z m-52 -6.5 c-0.2 -1.3 -0.4 -0.5 -0.4 1.7 -0.1 2.2 0.1 3.2 0.4 2.3 0.2 -1 0.2 -2.8 0 -4z"/>
 </g>
 <g fill="#ababab">
  <path d="M45 221 c0 -18.3 0.1 -19 2 -19 1.9 0 2 0.7 2 17 l0 17 79.5 0 79.5 0 0 -17 c0 -16.3 0.1 -17 2 -17 1.9 0 2 0.7 2 19 l0 19 -83.5 0 -83.5 0 0 -19z"/>
  <path d="M58 216.5 l0 -3.5 70.5 0 70.5 0 0 3.5 0 3.5 -70.5 0 -70.5 0 0 -3.5z"/>
  <path d="M45 67.5 l0 -51.5 59.3 0 c56.3 0 59.5 0.1 61 1.8 1.5 1.6 1.7 4.7 1.7 22.5 l0 20.7 20.8 0 c19 0 21 0.2 22.5 1.8 1.5 1.6 1.7 5.1 1.7 29 0 26.5 0 27.2 -2 27.2 -1.9 0 -2 -0.7 -2 -25.5 l0 -25.5 -24 0 -24 0 0 -24 0 -24 -55.5 0 -55.5 0 0 49.5 c0 48.8 0 49.5 -2 49.5 -2 0 -2 -0.7 -2 -51.5z"/>
  <path d="M59 104.5 l0 -3.5 70 0 70 0 0 3.5 0 3.5 -70 0 -70 0 0 -3.5z"/>
  <path d="M59 88.5 l0 -3.5 70 0 70 0 0 3.5 0 3.5 -70 0 -70 0 0 -3.5z"/>
  <path d="M59 72.5 l0 -3.5 70 0 70 0 0 3.5 0 3.5 -70 0 -70 0 0 -3.5z"/>
  <path d="M58 56.5 l0 -3.5 46.5 0 46.5 0 0 3.5 0 3.5 -46.5 0 -46.5 0 0 -3.5z"/>
  <path d="M58 40.5 l0 -3.5 46.5 0 46.5 0 0 3.5 0 3.5 -46.5 0 -46.5 0 0 -3.5z"/>
 </g>
 <g fill="#f5f5f6">
  <path d="M46 220.5 l0 -18.5 82.5 0 82.5 0 0 18.5 0 18.5 -82.5 0 -82.5 0 0 -18.5z m116.8 -4.2 c-18.5 -0.2 -49.1 -0.2 -68 0 -18.9 0.1 -3.7 0.2 33.7 0.2 37.4 0 52.8 -0.1 34.3 -0.2z"/>
  <path d="M67 159.9 l0 -22.1 10.3 0.4 c11.9 0.5 15.6 2 18.2 7.4 2 4.4 1.4 10.3 -1.5 14.4 -2.5 3.5 -8.6 6 -14.5 6 l-4.5 0 0 8 0 8 -4 0 -4 0 0 -22.1z m19.5 -2.4 c5.8 -5.7 1.6 -13.5 -7.1 -13.5 l-4.4 0 0 8 0 8 4.5 0 c3.5 0 5.2 -0.6 7 -2.5z"/>
  <path d="M111 160 l0 -22.3 11.3 0.5 c13.9 0.5 19.4 2.7 23.2 9.2 3.2 5.5 3.5 16.7 0.6 22.4 -4.3 8.4 -10.4 11.3 -24.8 12 l-10.3 0.5 0 -22.3z m21.6 14.4 c5 -2.4 7.5 -6.5 8.1 -13.2 0.8 -10.6 -4.3 -16.3 -15.2 -17 l-6.5 -0.4 0 16.1 0 16.1 5.1 0 c2.8 0 6.6 -0.7 8.5 -1.6z"/>
  <path d="M162 160 l0 -22 12 0 12 0 0 3 0 3 -8 0 -8 0 0 6.5 0 6.5 7.5 0 7.5 0 0 3 0 3 -7.5 0 -7.5 0 0 9.5 0 9.5 -4 0 -4 0 0 -22z"/>
  <path d="M46 68 l0 -51 58.5 0 58.5 0 0 24 0 24 24 0 24 0 0 27 0 27 -82.5 0 -82.5 0 0 -51z m116.8 36.3 c-18.6 -0.2 -49 -0.2 -67.5 0 -18.6 0.1 -3.4 0.2 33.7 0.2 37.1 0 52.3 -0.1 33.8 -0.2z m0 -16 c-18.6 -0.2 -49 -0.2 -67.5 0 -18.6 0.1 -3.4 0.2 33.7 0.2 37.1 0 52.3 -0.1 33.8 -0.2z m0 -16 c-18.6 -0.2 -49 -0.2 -67.5 0 -18.6 0.1 -3.4 0.2 33.7 0.2 37.1 0 52.3 -0.1 33.8 -0.2z m-36 -16 c-11.9 -0.2 -31.7 -0.2 -44 0 -12.3 0.1 -2.5 0.2 21.7 0.2 24.2 0 34.2 -0.1 22.3 -0.2z m0 -16 c-11.9 -0.2 -31.7 -0.2 -44 0 -12.3 0.1 -2.5 0.2 21.7 0.2 24.2 0 34.2 -0.1 22.3 -0.2z"/>
  <path d="M164 40.3 l0 -23.8 23.5 23.5 c12.9 12.9 23.5 23.6 23.5 23.7 0 0.2 -10.6 0.3 -23.5 0.3 l-23.5 0 0 -23.7z"/>
 </g>
</svg>