<svg xmlns="http://www.w3.org/2000/svg" xmlns:xlink="http://www.w3.org/1999/xlink" width="40" zoomAndPan="magnify" viewBox="0 0 30 30.000001" height="40" preserveAspectRatio="xMidYMid meet" version="1.0"><defs><clipPath id="976c843b43"><path d="M 0.484375 6.242188 L 29.515625 6.242188 L 29.515625 22.933594 L 0.484375 22.933594 Z M 0.484375 6.242188 " clip-rule="nonzero"/></clipPath></defs><g clip-path="url(#976c843b43)"><path fill="#ffffff" d="M 27.921875 6.375 C 24.289062 5.460938 16.984375 9.636719 15.496094 11.726562 C 15.4375 11.511719 15.359375 11.339844 15.269531 11.222656 C 15.53125 11.132812 15.71875 10.921875 15.71875 10.675781 C 15.714844 10.589844 15.695312 10.507812 15.652344 10.429688 C 15.664062 10.390625 15.667969 10.347656 15.667969 10.304688 C 15.667969 10.140625 15.585938 10.011719 15.488281 10.011719 C 15.421875 10.011719 15.363281 10.066406 15.332031 10.152344 C 15.246094 10.117188 15.15625 10.097656 15.0625 10.089844 C 15.109375 9.828125 15.285156 9.613281 15.46875 9.394531 C 15.664062 9.152344 15.867188 8.902344 15.933594 8.574219 C 15.988281 8.546875 16.03125 8.460938 16.03125 8.363281 C 16.03125 8.242188 15.96875 8.140625 15.894531 8.140625 C 15.816406 8.140625 15.757812 8.242188 15.757812 8.363281 C 15.753906 8.425781 15.773438 8.484375 15.8125 8.535156 C 15.75 8.84375 15.558594 9.082031 15.371094 9.3125 C 15.226562 9.488281 15.082031 9.664062 15 9.863281 C 14.917969 9.664062 14.773438 9.488281 14.628906 9.3125 C 14.441406 9.082031 14.25 8.84375 14.1875 8.535156 C 14.226562 8.484375 14.246094 8.425781 14.242188 8.363281 C 14.242188 8.242188 14.183594 8.140625 14.105469 8.140625 C 14.03125 8.140625 13.96875 8.242188 13.96875 8.363281 C 13.96875 8.460938 14.011719 8.546875 14.066406 8.574219 C 14.132812 8.902344 14.335938 9.152344 14.53125 9.394531 C 14.714844 9.613281 14.890625 9.828125 14.9375 10.089844 C 14.84375 10.097656 14.753906 10.117188 14.667969 10.152344 C 14.636719 10.066406 14.578125 10.011719 14.511719 10.011719 C 14.414062 10.011719 14.332031 10.140625 14.332031 10.304688 C 14.332031 10.347656 14.335938 10.390625 14.347656 10.429688 C 14.304688 10.507812 14.285156 10.589844 14.28125 10.675781 C 14.28125 10.921875 14.46875 11.132812 14.730469 11.222656 C 14.640625 11.339844 14.5625 11.511719 14.503906 11.726562 C 13.015625 9.636719 5.710938 5.460938 2.078125 6.375 C -0.871094 7.117188 1.207031 7.519531 1.039062 8.570312 C 0.9375 9.191406 1.632812 9.042969 1.765625 9.835938 C 1.933594 10.828125 2.433594 10.304688 2.574219 11.007812 C 2.75 11.886719 3.128906 11.273438 3.320312 12.15625 C 3.539062 13.171875 3.78125 12.515625 4.105469 13.417969 C 4.496094 14.488281 5.117188 13.953125 5.328125 14.835938 C 5.523438 15.632812 6.730469 15.734375 8.097656 14.996094 C 7.597656 15.546875 7.226562 16.148438 7.074219 16.765625 C 6.65625 18.425781 7.441406 17.585938 7.664062 18.578125 C 7.960938 19.894531 8.660156 18.753906 8.847656 19.835938 C 8.976562 20.574219 9.949219 19.832031 9.710938 21.003906 C 9.390625 22.554688 10.050781 23.097656 10.140625 22.613281 C 10.339844 21.550781 10.496094 20.414062 11.59375 20.742188 C 12.667969 21.0625 13.53125 21.148438 13.503906 20.273438 C 13.484375 19.710938 14.355469 19.058594 14.59375 17.847656 C 14.597656 17.875 14.597656 17.898438 14.597656 17.925781 C 14.597656 18.5 14.777344 18.96875 15 18.96875 C 15.222656 18.96875 15.402344 18.5 15.402344 17.925781 C 15.402344 17.898438 15.402344 17.875 15.40625 17.847656 C 15.644531 19.058594 16.511719 19.710938 16.496094 20.273438 C 16.46875 21.148438 17.332031 21.0625 18.40625 20.742188 C 19.503906 20.414062 19.660156 21.550781 19.859375 22.613281 C 19.949219 23.097656 20.609375 22.554688 20.289062 21.003906 C 20.046875 19.832031 21.023438 20.574219 21.152344 19.835938 C 21.339844 18.753906 22.039062 19.894531 22.335938 18.578125 C 22.558594 17.585938 23.34375 18.425781 22.925781 16.765625 C 22.769531 16.148438 22.402344 15.546875 21.902344 14.996094 C 23.265625 15.734375 24.476562 15.632812 24.671875 14.835938 C 24.882812 13.953125 25.503906 14.488281 25.890625 13.414062 C 26.21875 12.515625 26.460938 13.171875 26.679688 12.15625 C 26.871094 11.273438 27.25 11.886719 27.425781 11.007812 C 27.566406 10.304688 28.066406 10.828125 28.234375 9.835938 C 28.367188 9.042969 29.0625 9.191406 28.960938 8.570312 C 28.792969 7.519531 30.871094 7.117188 27.921875 6.375 Z M 27.921875 6.375 " fill-opacity="1" fill-rule="evenodd"/></g></svg>