<svg width="110" height="34" viewBox="0 0 110 34" fill="none" xmlns="http://www.w3.org/2000/svg">
<circle cx="7" cy="13.25" r="7" fill="url(#paint0_linear_1603_2425)"/>
<g filter="url(#filter0_i_1603_2425)">
<path fill-rule="evenodd" clip-rule="evenodd" d="M18 23.25H4.5H4V23.2225C1.75002 22.9738 0 21.0663 0 18.75C0 16.2647 2.01472 14.25 4.5 14.25C4.66903 14.25 4.83587 14.2593 5.00006 14.2775L5 14.25C5 10.9363 7.68629 8.25 11 8.25C13.3171 8.25 15.3274 9.56341 16.327 11.4863C16.858 11.3325 17.4194 11.25 18 11.25C21.3137 11.25 24 13.9363 24 17.25C24 20.5637 21.3137 23.25 18 23.25Z" fill="url(#paint1_linear_1603_2425)"/>
</g>
<path d="M42.5606 7.56197C42.5606 8.11736 42.43 8.587 42.1686 8.97088C41.9113 9.35067 41.5581 9.63858 41.1088 9.83461C40.6637 10.0265 40.1573 10.1225 39.5897 10.1225C39.0261 10.1225 38.5177 10.0265 38.0644 9.83461C37.6151 9.63858 37.2578 9.35067 36.9924 8.97088C36.731 8.587 36.6003 8.11736 36.6003 7.56197C36.6003 7.19034 36.6738 6.85343 36.8208 6.55122C36.9719 6.24902 37.1802 5.9897 37.4457 5.77326C37.7111 5.55273 38.0256 5.3853 38.389 5.27095C38.7525 5.15252 39.1486 5.09331 39.5774 5.09331C40.1491 5.09331 40.6596 5.19744 41.1088 5.40572C41.5621 5.60991 41.9174 5.89782 42.1747 6.26944C42.432 6.63698 42.5606 7.06783 42.5606 7.56197ZM40.9312 7.46396C40.9312 7.17809 40.874 6.93102 40.7597 6.72274C40.6494 6.51039 40.4922 6.34703 40.288 6.23269C40.0838 6.11834 39.8469 6.06117 39.5774 6.06117C39.3038 6.06117 39.0649 6.11834 38.8607 6.23269C38.6606 6.34703 38.5034 6.51039 38.389 6.72274C38.2788 6.93102 38.2236 7.17809 38.2236 7.46396C38.2236 7.75391 38.2788 8.00302 38.389 8.21129C38.5034 8.41548 38.6626 8.57271 38.8668 8.68297C39.071 8.79323 39.312 8.84837 39.5897 8.84837C39.8674 8.84837 40.1063 8.79323 40.3064 8.68297C40.5065 8.57271 40.6596 8.41548 40.7658 8.21129C40.8761 8.00302 40.9312 7.75391 40.9312 7.46396ZM42.3646 3.43324C42.3646 3.88246 42.2462 4.28267 42.0093 4.63388C41.7725 4.981 41.4437 5.25257 41.0231 5.4486C40.6065 5.64462 40.1287 5.74263 39.5897 5.74263C39.0506 5.74263 38.5687 5.64462 38.144 5.4486C37.7234 5.25257 37.3926 4.981 37.1516 4.63388C36.9148 4.28267 36.7963 3.88246 36.7963 3.43324C36.7963 2.90234 36.9168 2.45312 37.1578 2.08558C37.3987 1.71396 37.7275 1.43217 38.144 1.24023C38.5646 1.04829 39.0424 0.952325 39.5774 0.952325C40.1206 0.952325 40.6025 1.04829 41.0231 1.24023C41.4437 1.43217 41.7725 1.71396 42.0093 2.08558C42.2462 2.45312 42.3646 2.90234 42.3646 3.43324ZM40.7474 3.50062C40.7474 3.24742 40.7005 3.0269 40.6065 2.83904C40.5126 2.64711 40.3778 2.49805 40.2022 2.39187C40.0307 2.28569 39.8224 2.2326 39.5774 2.2326C39.3406 2.2326 39.1364 2.28365 38.9648 2.38574C38.7933 2.48784 38.6606 2.63485 38.5667 2.82679C38.4727 3.01465 38.4258 3.23926 38.4258 3.50062C38.4258 3.7579 38.4727 3.98251 38.5667 4.17445C38.6606 4.36639 38.7933 4.51749 38.9648 4.62775C39.1404 4.73393 39.3487 4.78702 39.5897 4.78702C39.8306 4.78702 40.0368 4.73393 40.2084 4.62775C40.3799 4.51749 40.5126 4.36639 40.6065 4.17445C40.7005 3.98251 40.7474 3.7579 40.7474 3.50062ZM55.4859 7.06578H57.1705C57.1255 7.66202 56.9601 8.19087 56.6743 8.65234C56.3884 9.10973 55.9902 9.46911 55.4798 9.73047C54.9693 9.99183 54.3506 10.1225 53.6237 10.1225C53.0642 10.1225 52.5598 10.0245 52.1106 9.82848C51.6655 9.62837 51.2836 9.34455 50.9651 8.97701C50.6507 8.60538 50.4097 8.16024 50.2423 7.6416C50.0748 7.11887 49.9911 6.53285 49.9911 5.88352V5.20357C49.9911 4.55424 50.0769 3.96822 50.2484 3.44549C50.4199 2.92276 50.665 2.47763 50.9835 2.11008C51.3061 1.73846 51.692 1.45259 52.1412 1.25248C52.5946 1.05238 53.1009 0.952325 53.6604 0.952325C54.3873 0.952325 55.002 1.08709 55.5043 1.35662C56.0066 1.62207 56.3966 1.98757 56.6743 2.45312C56.952 2.91868 57.1194 3.45366 57.1766 4.05806H55.492C55.4593 3.68235 55.3777 3.36381 55.247 3.10245C55.1204 2.84109 54.9284 2.64302 54.6712 2.50826C54.418 2.36941 54.0811 2.29998 53.6604 2.29998C53.3337 2.29998 53.0458 2.36124 52.7967 2.48375C52.5517 2.60627 52.3475 2.79004 52.1841 3.03507C52.0208 3.27601 51.8983 3.57821 51.8166 3.94167C51.7349 4.30105 51.6941 4.7176 51.6941 5.19132V5.88352C51.6941 6.33682 51.7308 6.74316 51.8043 7.10254C51.8778 7.46191 51.9922 7.76616 52.1474 8.01527C52.3026 8.26438 52.5027 8.45428 52.7477 8.58496C52.9927 8.71564 53.2847 8.78098 53.6237 8.78098C54.0361 8.78098 54.371 8.71564 54.6283 8.58496C54.8897 8.45428 55.0877 8.26234 55.2225 8.00914C55.3613 7.75595 55.4491 7.44149 55.4859 7.06578Z" fill="white"/>
<circle cx="47" cy="3.25" r="1.5" stroke="white"/>
<path d="M39.7008 27.1439H37.1107V26.0985H39.7008C40.2024 26.0985 40.6086 26.0186 40.9193 25.8588C41.23 25.699 41.4564 25.4771 41.5985 25.193C41.7449 24.9089 41.8182 24.5848 41.8182 24.2208C41.8182 23.8879 41.7449 23.575 41.5985 23.282C41.4564 22.989 41.23 22.7538 40.9193 22.5762C40.6086 22.3942 40.2024 22.3032 39.7008 22.3032H37.4103V30.9458H36.1253V21.2512H39.7008C40.4332 21.2512 41.0525 21.3777 41.5585 21.6307C42.0645 21.8837 42.4485 22.2344 42.7104 22.6827C42.9723 23.1266 43.1033 23.6349 43.1033 24.2075C43.1033 24.829 42.9723 25.3594 42.7104 25.7989C42.4485 26.2383 42.0645 26.5735 41.5585 26.8043C41.0525 27.0307 40.4332 27.1439 39.7008 27.1439ZM48.7096 29.714V26.0053C48.7096 25.7212 48.6519 25.4748 48.5365 25.2662C48.4255 25.0531 48.2568 24.8889 48.0305 24.7735C47.8041 24.6581 47.5244 24.6004 47.1915 24.6004C46.8808 24.6004 46.6078 24.6536 46.3725 24.7602C46.1417 24.8667 45.9597 25.0065 45.8265 25.1796C45.6978 25.3528 45.6334 25.5392 45.6334 25.7389H44.4016C44.4016 25.4815 44.4682 25.2263 44.6014 24.9732C44.7346 24.7202 44.9254 24.4916 45.174 24.2874C45.427 24.0788 45.7289 23.9146 46.0795 23.7947C46.4347 23.6704 46.8297 23.6083 47.2647 23.6083C47.7885 23.6083 48.2502 23.697 48.6497 23.8746C49.0536 24.0522 49.3688 24.3207 49.5952 24.6803C49.826 25.0354 49.9414 25.4815 49.9414 26.0186V29.3744C49.9414 29.6141 49.9614 29.8694 50.0013 30.1401C50.0457 30.4109 50.1101 30.644 50.1944 30.8393V30.9458H48.9094C48.8472 30.8038 48.7984 30.6151 48.7629 30.3798C48.7274 30.1401 48.7096 29.9182 48.7096 29.714ZM48.9227 26.5779L48.936 27.4435H47.6909C47.3402 27.4435 47.0273 27.4723 46.752 27.5301C46.4768 27.5833 46.246 27.6654 46.0596 27.7764C45.8731 27.8874 45.7311 28.0272 45.6334 28.1959C45.5358 28.3601 45.487 28.5532 45.487 28.7752C45.487 29.0016 45.538 29.208 45.6401 29.3944C45.7422 29.5808 45.8953 29.7295 46.0995 29.8405C46.3082 29.947 46.5634 30.0003 46.8652 30.0003C47.2425 30.0003 47.5755 29.9204 47.864 29.7606C48.1525 29.6008 48.3811 29.4055 48.5498 29.1747C48.7229 28.9438 48.8161 28.7197 48.8295 28.5022L49.3555 29.0948C49.3244 29.2812 49.2401 29.4876 49.1025 29.714C48.9648 29.9404 48.7806 30.1579 48.5498 30.3665C48.3234 30.5707 48.0526 30.7416 47.7375 30.8792C47.4268 31.0124 47.0761 31.079 46.6855 31.079C46.1972 31.079 45.7688 30.9835 45.4004 30.7927C45.0364 30.6018 44.7523 30.3465 44.5481 30.0269C44.3484 29.7029 44.2485 29.3411 44.2485 28.9416C44.2485 28.5554 44.324 28.2159 44.4749 27.9229C44.6258 27.6255 44.8433 27.3791 45.1274 27.1838C45.4115 26.9841 45.7533 26.8331 46.1528 26.731C46.5523 26.629 46.9984 26.5779 47.4911 26.5779H48.9227ZM53.1108 24.8734V30.9458H51.879V23.7414H53.0775L53.1108 24.8734ZM55.3613 23.7015L55.3547 24.8467C55.2526 24.8245 55.1549 24.8112 55.0617 24.8068C54.9729 24.7979 54.8708 24.7935 54.7554 24.7935C54.4713 24.7935 54.2205 24.8378 54.003 24.9266C53.7855 25.0154 53.6013 25.1397 53.4504 25.2995C53.2995 25.4593 53.1796 25.6502 53.0908 25.8721C53.0065 26.0896 52.951 26.3293 52.9244 26.5912L52.5781 26.791C52.5781 26.356 52.6203 25.9476 52.7046 25.5658C52.7934 25.1841 52.9288 24.8467 53.1108 24.5538C53.2928 24.2563 53.5236 24.0255 53.8033 23.8613C54.0874 23.6926 54.4247 23.6083 54.8153 23.6083C54.9041 23.6083 55.0062 23.6194 55.1216 23.6416C55.237 23.6593 55.3169 23.6793 55.3613 23.7015ZM59.8491 23.7414V24.6869H55.9539V23.7414H59.8491ZM57.2723 21.9903H58.5041V29.1614C58.5041 29.4055 58.5418 29.5897 58.6173 29.714C58.6927 29.8383 58.7904 29.9204 58.9102 29.9604C59.0301 30.0003 59.1588 30.0203 59.2964 30.0203C59.3985 30.0203 59.5051 30.0114 59.616 29.9937C59.7314 29.9715 59.818 29.9537 59.8757 29.9404L59.8824 30.9458C59.7847 30.9769 59.656 31.0057 59.4962 31.0324C59.3408 31.0634 59.1522 31.079 58.9302 31.079C58.6284 31.079 58.3509 31.019 58.0979 30.8992C57.8449 30.7793 57.6429 30.5796 57.492 30.2999C57.3455 30.0158 57.2723 29.6341 57.2723 29.1547V21.9903ZM62.6323 20.7185V30.9458H61.3938V20.7185H62.6323ZM66.634 30.2001L68.6381 23.7414H69.9565L67.0668 32.0578C67.0002 32.2353 66.9114 32.4262 66.8004 32.6304C66.6939 32.839 66.5563 33.0365 66.3876 33.223C66.2189 33.4094 66.0147 33.5603 65.775 33.6757C65.5398 33.7956 65.2579 33.8555 64.9294 33.8555C64.8318 33.8555 64.7075 33.8422 64.5566 33.8156C64.4056 33.7889 64.2991 33.7667 64.237 33.749L64.2303 32.7502C64.2658 32.7547 64.3213 32.7591 64.3968 32.7635C64.4767 32.7724 64.5321 32.7769 64.5632 32.7769C64.8429 32.7769 65.0803 32.7391 65.2757 32.6637C65.471 32.5926 65.6352 32.4706 65.7684 32.2975C65.906 32.1288 66.0236 31.8957 66.1213 31.5983L66.634 30.2001ZM65.1625 23.7414L67.0335 29.3345L67.3531 30.6329L66.4675 31.0856L63.8175 23.7414H65.1625ZM78.6457 29.0348C78.6457 28.8573 78.6057 28.693 78.5258 28.5421C78.4504 28.3868 78.2928 28.2469 78.0531 28.1226C77.8178 27.9939 77.4627 27.8829 76.9878 27.7897C76.5882 27.7054 76.2265 27.6055 75.9024 27.4901C75.5828 27.3747 75.3098 27.2349 75.0835 27.0706C74.8615 26.9064 74.6906 26.7133 74.5708 26.4913C74.4509 26.2694 74.391 26.0097 74.391 25.7123C74.391 25.4282 74.4531 25.1597 74.5774 24.9066C74.7061 24.6536 74.8859 24.4295 75.1167 24.2342C75.352 24.0388 75.6339 23.8857 75.9624 23.7747C76.2908 23.6638 76.6571 23.6083 77.061 23.6083C77.6381 23.6083 78.1308 23.7104 78.5392 23.9146C78.9475 24.1187 79.2605 24.3917 79.478 24.7335C79.6955 25.0709 79.8042 25.446 79.8042 25.8588H78.5724C78.5724 25.659 78.5125 25.466 78.3927 25.2795C78.2773 25.0886 78.1064 24.9311 77.88 24.8068C77.658 24.6825 77.385 24.6203 77.061 24.6203C76.7192 24.6203 76.4418 24.6736 76.2287 24.7801C76.0201 24.8822 75.8669 25.0132 75.7693 25.173C75.6761 25.3328 75.6294 25.5015 75.6294 25.679C75.6294 25.8122 75.6516 25.932 75.696 26.0386C75.7449 26.1407 75.8292 26.2361 75.949 26.3249C76.0689 26.4092 76.2376 26.4891 76.4551 26.5646C76.6726 26.64 76.95 26.7155 77.2874 26.791C77.8778 26.9241 78.3638 27.0839 78.7456 27.2704C79.1273 27.4568 79.4114 27.6854 79.5978 27.9562C79.7843 28.227 79.8775 28.5554 79.8775 28.9416C79.8775 29.2568 79.8109 29.5453 79.6777 29.8072C79.549 30.0691 79.3604 30.2955 79.1118 30.4864C78.8676 30.6728 78.5747 30.8193 78.2329 30.9258C77.8955 31.0279 77.516 31.079 77.0943 31.079C76.4595 31.079 75.9224 30.9658 75.483 30.7394C75.0435 30.513 74.7106 30.22 74.4842 29.8605C74.2578 29.5009 74.1446 29.1214 74.1446 28.7219H75.3831C75.4008 29.0593 75.4985 29.3278 75.6761 29.5276C75.8536 29.7229 76.0711 29.8627 76.3286 29.947C76.586 30.0269 76.8413 30.0669 77.0943 30.0669C77.4316 30.0669 77.7135 30.0225 77.9399 29.9337C78.1707 29.8449 78.3461 29.7229 78.4659 29.5675C78.5858 29.4122 78.6457 29.2346 78.6457 29.0348ZM85.9033 29.2812V23.7414H87.1418V30.9458H85.9633L85.9033 29.2812ZM86.1364 27.7631L86.6491 27.7498C86.6491 28.2292 86.598 28.6731 86.4959 29.0815C86.3983 29.4854 86.2385 29.8361 86.0165 30.1335C85.7946 30.4309 85.5038 30.6639 85.1443 30.8326C84.7847 30.9968 84.3475 31.079 83.8326 31.079C83.4819 31.079 83.1601 31.0279 82.8671 30.9258C82.5786 30.8237 82.33 30.6661 82.1214 30.4531C81.9127 30.24 81.7507 29.9626 81.6353 29.6208C81.5243 29.279 81.4688 28.8684 81.4688 28.389V23.7414H82.7006V28.4023C82.7006 28.7263 82.7362 28.9949 82.8072 29.208C82.8826 29.4166 82.9825 29.5831 83.1068 29.7073C83.2355 29.8272 83.3776 29.9115 83.5329 29.9604C83.6927 30.0092 83.857 30.0336 84.0257 30.0336C84.5495 30.0336 84.9645 29.9337 85.2708 29.734C85.5771 29.5298 85.7968 29.2568 85.93 28.915C86.0676 28.5688 86.1364 28.1848 86.1364 27.7631ZM90.2512 25.2795V30.9458H89.0194V23.7414H90.1847L90.2512 25.2795ZM89.9583 27.0706L89.4456 27.0506C89.45 26.5579 89.5233 26.1029 89.6653 25.6857C89.8074 25.264 90.0071 24.8978 90.2646 24.587C90.522 24.2763 90.8283 24.0366 91.1834 23.8679C91.543 23.6948 91.9403 23.6083 92.3753 23.6083C92.7304 23.6083 93.05 23.6571 93.3341 23.7547C93.6182 23.848 93.8601 23.9989 94.0598 24.2075C94.264 24.4161 94.4194 24.6869 94.5259 25.0198C94.6325 25.3483 94.6857 25.75 94.6857 26.225V30.9458H93.4473V26.2117C93.4473 25.8344 93.3918 25.5325 93.2808 25.3062C93.1698 25.0753 93.0078 24.9089 92.7947 24.8068C92.5817 24.7002 92.3198 24.647 92.0091 24.647C91.7028 24.647 91.4231 24.7113 91.1701 24.8401C90.9215 24.9688 90.7062 25.1464 90.5242 25.3727C90.3467 25.5991 90.2069 25.8588 90.1048 26.1518C90.0071 26.4403 89.9583 26.7466 89.9583 27.0706ZM97.7885 25.2795V30.9458H96.5567V23.7414H97.722L97.7885 25.2795ZM97.4956 27.0706L96.9829 27.0506C96.9873 26.5579 97.0606 26.1029 97.2026 25.6857C97.3446 25.264 97.5444 24.8978 97.8019 24.587C98.0593 24.2763 98.3656 24.0366 98.7207 23.8679C99.0803 23.6948 99.4775 23.6083 99.9126 23.6083C100.268 23.6083 100.587 23.6571 100.871 23.7547C101.155 23.848 101.397 23.9989 101.597 24.2075C101.801 24.4161 101.957 24.6869 102.063 25.0198C102.17 25.3483 102.223 25.75 102.223 26.225V30.9458H100.985V26.2117C100.985 25.8344 100.929 25.5325 100.818 25.3062C100.707 25.0753 100.545 24.9089 100.332 24.8068C100.119 24.7002 99.8571 24.647 99.5463 24.647C99.2401 24.647 98.9604 24.7113 98.7074 24.8401C98.4588 24.9688 98.2435 25.1464 98.0615 25.3727C97.884 25.5991 97.7441 25.8588 97.6421 26.1518C97.5444 26.4403 97.4956 26.7466 97.4956 27.0706ZM106.118 30.2001L108.122 23.7414H109.441L106.551 32.0578C106.484 32.2353 106.396 32.4262 106.285 32.6304C106.178 32.839 106.04 33.0365 105.872 33.223C105.703 33.4094 105.499 33.5603 105.259 33.6757C105.024 33.7956 104.742 33.8555 104.414 33.8555C104.316 33.8555 104.192 33.8422 104.041 33.8156C103.89 33.7889 103.783 33.7667 103.721 33.749L103.714 32.7502C103.75 32.7547 103.805 32.7591 103.881 32.7635C103.961 32.7724 104.016 32.7769 104.047 32.7769C104.327 32.7769 104.565 32.7391 104.76 32.6637C104.955 32.5926 105.119 32.4706 105.253 32.2975C105.39 32.1288 105.508 31.8957 105.605 31.5983L106.118 30.2001ZM104.647 23.7414L106.518 29.3345L106.837 30.6329L105.952 31.0856L103.302 23.7414H104.647Z" fill="white"/>
<defs>
<filter id="filter0_i_1603_2425" x="0" y="8.25" width="25" height="16" filterUnits="userSpaceOnUse" color-interpolation-filters="sRGB">
<feFlood flood-opacity="0" result="BackgroundImageFix"/>
<feBlend mode="normal" in="SourceGraphic" in2="BackgroundImageFix" result="shape"/>
<feColorMatrix in="SourceAlpha" type="matrix" values="0 0 0 0 0 0 0 0 0 0 0 0 0 0 0 0 0 0 127 0" result="hardAlpha"/>
<feOffset dx="2" dy="2"/>
<feGaussianBlur stdDeviation="0.5"/>
<feComposite in2="hardAlpha" operator="arithmetic" k2="-1" k3="1"/>
<feColorMatrix type="matrix" values="0 0 0 0 1 0 0 0 0 1 0 0 0 0 1 0 0 0 1 0"/>
<feBlend mode="normal" in2="shape" result="effect1_innerShadow_1603_2425"/>
</filter>
<linearGradient id="paint0_linear_1603_2425" x1="0" y1="6.25" x2="6.5" y2="12.75" gradientUnits="userSpaceOnUse">
<stop stop-color="#FAE26F"/>
<stop offset="1" stop-color="#F7BC3D"/>
</linearGradient>
<linearGradient id="paint1_linear_1603_2425" x1="6.04167" y1="17.45" x2="12.9522" y2="26.0882" gradientUnits="userSpaceOnUse">
<stop stop-color="white"/>
<stop offset="1" stop-color="#BDE0F5"/>
</linearGradient>
</defs>
</svg>
